<svg width="40" height="42" viewBox="0 0 40 42" fill="none" xmlns="http://www.w3.org/2000/svg">
<g id="box" clip-path="url(#clip0_257_5030)">
<path id="Vector" d="M19.4352 0.489423L1.52352 9.34234C1.29891 9.45336 1.15625 9.68611 1.15625 9.94142V31.7252C1.15625 31.9805 1.29898 32.2133 1.52352 32.3243L19.4352 41.1772C19.7921 41.3537 20.2082 41.3537 20.5652 41.1772L38.4768 32.3243C38.7014 32.2133 38.8441 31.9805 38.8441 31.7252V9.94142C38.8441 9.68611 38.7013 9.45336 38.4768 9.34234L20.5652 0.489423C20.2082 0.313055 19.7921 0.313055 19.4352 0.489423Z" fill="#FFE17D"/>
<path id="Vector_2" d="M1.2643 9.57727C1.19602 9.68373 1.15625 9.80907 1.15625 9.94144V31.7252C1.15625 31.9805 1.29898 32.2133 1.52352 32.3243L19.4352 41.1772C19.6136 41.2654 19.8069 41.3094 20.0002 41.3094V18.8375L1.2643 9.57727Z" fill="#FFC350"/>
<path id="Vector_3" d="M38.7359 9.57727C38.8041 9.68373 38.8439 9.80907 38.8439 9.94144V31.7252C38.8439 31.9805 38.7012 32.2133 38.4766 32.3243L20.565 41.1771C20.3866 41.2654 20.1933 41.3095 20 41.3095V18.8375L38.7359 9.57727Z" fill="#FFD164"/>
<path id="Vector_4" d="M6.51621 30.5641C6.42167 30.5641 6.32519 30.5426 6.23449 30.4978L3.4691 29.131C3.1455 28.9712 3.01035 28.5736 3.16644 28.2429C3.32191 27.9122 3.71152 27.7745 4.03386 27.933L6.79925 29.3C7.12285 29.4598 7.258 29.8574 7.10191 30.1881C6.99027 30.4257 6.758 30.5641 6.51621 30.5641Z" fill="#FFE17D"/>
<path id="Vector_5" d="M9.06149 28.8678C8.96696 28.8678 8.87047 28.8464 8.77977 28.8016L3.47289 26.1789C3.14993 26.0191 3.01414 25.6215 3.17024 25.2908C3.32571 24.9608 3.71594 24.8224 4.03766 24.981L9.34446 27.6037C9.66743 27.7635 9.80321 28.1611 9.64711 28.4917C9.53555 28.7294 9.30329 28.8678 9.06149 28.8678Z" fill="#FFF6D8"/>
<path id="Vector_6" d="M32.3864 12.7046L13.5847 3.40533L8.62842 5.86488L27.4723 15.1786L32.3864 12.7046Z" fill="#FF8087"/>
<path id="Vector_7" d="M27.4727 15.1786V22.3938C27.4727 22.6391 27.723 22.8 27.9388 22.6934L32.0195 20.6765C32.2441 20.5655 32.3867 20.3328 32.3867 20.0775V12.7047L27.4727 15.1786Z" fill="#E6646E"/>
</g>
<defs>
<clipPath id="clip0_257_5030">
<rect width="40" height="40.9524" fill="white" transform="translate(0 0.357117)"/>
</clipPath>
</defs>
</svg>
