<svg width="40" height="40" viewBox="0 0 40 40" fill="none" xmlns="http://www.w3.org/2000/svg">
<g id="statistics" clip-path="url(#clip0_257_5044)">
<path id="Vector" d="M11.9852 23.7693H6.21369C5.27611 23.7693 4.51611 24.5293 4.51611 25.4669V38.3024C4.51611 39.2399 5.27611 39.9999 6.21369 39.9999H11.9851C12.9227 39.9999 13.6827 39.2399 13.6827 38.3024V25.4669C13.6827 24.5293 12.9227 23.7693 11.9852 23.7693Z" fill="#FFDC4A"/>
<path id="Vector_2" d="M6.93064 38.3024V25.4669C6.93064 24.5294 7.69064 23.7693 8.62821 23.7693H6.21369C5.27611 23.7693 4.51611 24.5293 4.51611 25.4669V38.3024C4.51611 39.24 5.27611 40 6.21369 40H8.62814C7.69064 39.9999 6.93064 39.2399 6.93064 38.3024Z" fill="#EDCA3A"/>
<path id="Vector_3" d="M24.4319 17.8827H18.6605C17.7229 17.8827 16.9629 18.6427 16.9629 19.5802V38.3025C16.9629 39.24 17.7229 40 18.6605 40H24.4319C25.3694 40 26.1294 39.24 26.1294 38.3025V19.5802C26.1294 18.6427 25.3694 17.8827 24.4319 17.8827Z" fill="#FF3132"/>
<path id="Vector_4" d="M19.3773 38.3024V19.5801C19.3773 18.6426 20.1373 17.8826 21.0749 17.8826H18.6605C17.7229 17.8826 16.9629 18.6426 16.9629 19.5801V38.3024C16.9629 39.24 17.7229 40 18.6605 40H21.0749C20.1373 40 19.3773 39.24 19.3773 38.3024Z" fill="#D82A2B"/>
<path id="Vector_5" d="M36.8777 11.9959H31.1063C30.1687 11.9959 29.4087 12.7559 29.4087 13.6935V38.3024C29.4087 39.24 30.1687 40 31.1063 40H36.8777C37.8152 40 38.5752 39.24 38.5752 38.3024V13.6935C38.5752 12.7559 37.8152 11.9959 36.8777 11.9959Z" fill="#3CDCF9"/>
<path id="Vector_6" d="M31.8236 38.3024V13.6935C31.8236 12.7559 32.5836 11.9959 33.5212 11.9959H31.1068C30.1692 11.9959 29.4092 12.7559 29.4092 13.6935V38.3024C29.4092 39.24 30.1692 40 31.1068 40H33.5212C32.5836 40 31.8236 39.24 31.8236 38.3024Z" fill="#30CBE8"/>
<path id="Vector_7" d="M38.4842 0.00739403L32.6539 0.767236L34.0632 2.65223L29.0702 6.38535L26.4439 4.06981C25.996 3.67489 25.3326 3.64825 24.8543 4.00575L13.6876 12.3545L11.0753 10.3976C10.6274 10.062 10.0119 10.0617 9.56369 10.3969L0.56543 17.1246L2.07605 19.1452L10.3183 12.9828L12.9306 14.9397C13.3785 15.2753 13.994 15.2756 14.4422 14.9404L25.5441 6.63988L28.1704 8.95542C28.6183 9.35034 29.2818 9.37706 29.76 9.01949L35.5738 4.6727L36.9844 6.55933L39.3615 1.18044C39.6264 0.581143 39.1339 -0.0772933 38.4842 0.00739403Z" fill="#2DC580"/>
</g>
<defs>
<clipPath id="clip0_257_5044">
<rect width="40" height="40" fill="white"/>
</clipPath>
</defs>
</svg>
